<?xml version="1.0" encoding="UTF-8"?>
<svg width="24px" height="24px" viewBox="0 0 24 24" version="1.1" xmlns="http://www.w3.org/2000/svg" xmlns:xlink="http://www.w3.org/1999/xlink">
    <!-- Generator: Sketch 55.2 (78181) - https://sketchapp.com -->
    <title>newversion/icon/history-2 copy</title>
    <desc>Created with Sketch.</desc>
    <g id="newversion/icon/history-2-copy" stroke="none" stroke-width="1" fill="none" fill-rule="evenodd">
        <g id="ic_history">
            <polygon id="Bounds" points="0 0 24 0 24 24 0 24"></polygon>
            <path d="M13.5714286,3 C8.3647619,3 4.14285714,7.25388889 4.14285714,12.5 L1,12.5 L5.0752381,16.6061111 L5.14857143,16.7538889 L9.38095238,12.5 L6.23809524,12.5 C6.23809524,8.415 9.51714286,5.11111111 13.5714286,5.11111111 C17.6257143,5.11111111 20.9047619,8.415 20.9047619,12.5 C20.9047619,16.585 17.6257143,19.8888889 13.5714286,19.8888889 C11.5495238,19.8888889 9.71619048,19.055 8.39619048,17.7144444 L6.90857143,19.2133333 C8.61619048,20.9338889 10.9628571,22 13.5714286,22 C18.7780952,22 23,17.7461111 23,12.5 C23,7.25388889 18.7780952,3 13.5714286,3 L13.5714286,3 Z M13,8 L13,13.3050398 L17.28,16 L18,14.7161804 L14.5,12.5092838 L14.5,8 L13,8 L13,8 Z" id="Icon" fill="#FFFFFF"></path>
        </g>
    </g>
</svg>